<svg xmlns="http://www.w3.org/2000/svg" width="1040" height="397.504" viewBox="0 0 1040 397.504">
  <g id="bado_logo_with_slogan" data-name="bado logo with slogan" transform="translate(-4222 -988)">
    <g id="Group_72668" data-name="Group 72668" transform="translate(4042.977 810.345)">
      <rect id="Rectangle_20795" data-name="Rectangle 20795" width="1040" height="268" transform="translate(179.023 177.655)" fill="#fff" opacity="0"/>
      <g id="Group_72666" data-name="Group 72666">
        <path id="Path_66357" data-name="Path 66357" d="M1100.166,207.369a118.857,118.857,0,1,0,118.857,118.857A118.857,118.857,0,0,0,1100.166,207.369Zm0,178.285a59.428,59.428,0,1,1,59.428-59.428A59.428,59.428,0,0,1,1100.166,385.654Z" fill="#4d94ec"/>
      </g>
      <g id="Group_72667" data-name="Group 72667">
        <path id="Path_66358" data-name="Path 66358" d="M1100.166,207.369a118.857,118.857,0,1,0,118.857,118.857A118.857,118.857,0,0,0,1100.166,207.369Zm0,178.285a59.428,59.428,0,1,1,59.428-59.428A59.428,59.428,0,0,1,1100.166,385.654Z" fill="#4d94ec"/>
      </g>
      <path id="Path_66359" data-name="Path 66359" d="M951.595,326.226V266.8h0V207.369h0V177.655H892.166v29.714h0V223.31a118.857,118.857,0,1,0,0,205.833v15.944h59.429V385.659h0V326.226ZM832.738,385.654a59.428,59.428,0,1,1,59.428-59.428A59.428,59.428,0,0,1,832.738,385.654Z" fill="#1aaf84"/>
      <path id="Path_66360" data-name="Path 66360" d="M297.88,207.37a118.248,118.248,0,0,0-59.428,15.941v-15.94h0V177.656H179.023v29.715h0V266.8h0v59.428h0A118.858,118.858,0,1,0,297.88,207.37Zm0,178.285a59.428,59.428,0,1,1,59.429-59.428A59.428,59.428,0,0,1,297.88,385.655Z" fill="#1aaf84"/>
      <path id="Path_66361" data-name="Path 66361" d="M684.166,326.226h0a118.895,118.895,0,1,0-59.428,102.917v15.94h59.429V385.654h0V326.226ZM565.31,385.654a59.428,59.428,0,1,1,59.428-59.428A59.428,59.428,0,0,1,565.31,385.654Z" fill="#ecab3f"/>
    </g>
    <path id="Path_66362" data-name="Path 66362" d="M203.573,488.484v62.4h-7.75v-62.4H179.031v-7.2h41.518v7.2Z" transform="translate(4042.977 810.345)" fill="#fff"/>
    <path id="Path_66363" data-name="Path 66363" d="M235.863,507.5v4.708q4.478-5.905,9.7-5.908a13.967,13.967,0,0,1,6.718,2.031l-3.506,6.738q-2.861-1.938-4.428-1.938-8.49,0-8.488,16.061v21.692h-7.381V507.5Z" transform="translate(4042.977 810.345)" fill="#fff"/>
    <path id="Path_66364" data-name="Path 66364" d="M299.8,507.5v43.384h-7.381v-6a18.152,18.152,0,0,1-15.024,7.2,19.129,19.129,0,0,1-15.209-6.923,23.25,23.25,0,0,1-5.657-15.877q0-9.691,5.565-16.153a19.27,19.27,0,0,1,15.4-6.831,18.063,18.063,0,0,1,14.93,7.385V507.5ZM278.21,513.13a12.765,12.765,0,0,0-10.241,4.569,16.484,16.484,0,0,0-3.875,11.031,17.977,17.977,0,0,0,3.69,11.445,12.681,12.681,0,0,0,10.518,5.077A13.156,13.156,0,0,0,289.1,540.36a17.661,17.661,0,0,0,3.69-11.538,16.3,16.3,0,0,0-3.967-11.216A13.478,13.478,0,0,0,278.21,513.13Zm3.044-24.092q0-2.953-3.321-2.954-2.861,0-2.86,3.046a11.09,11.09,0,0,0,.092,1.385l-2.4-1.108v-1.569a5.069,5.069,0,0,1,1.938-3.969,6.377,6.377,0,0,1,4.244-1.661,6.554,6.554,0,0,1,4.29,1.661,4.944,4.944,0,0,1,1.984,3.877,6.066,6.066,0,0,1-1.661,4.338,34.071,34.071,0,0,1-3.875,2.769v2.954l-2.214,2.216-2.122-1.939a10.308,10.308,0,0,1-.185-1.846,4.116,4.116,0,0,1,1.107-3.046q.461-.184,3.045-1.293A2.9,2.9,0,0,0,281.254,489.038Z" transform="translate(4042.977 810.345)" fill="#fff"/>
    <path id="Path_66365" data-name="Path 66365" d="M318.8,485.9a5.362,5.362,0,1,1-3.69,1.57A5.053,5.053,0,0,1,318.8,485.9Zm3.691,21.6v43.384h-7.381V507.5Z" transform="translate(4042.977 810.345)" fill="#fff"/>
    <path id="Path_66366" data-name="Path 66366" d="M374.437,507.5v5.262a14.728,14.728,0,0,1,12.447-6.462q14.862,0,14.863,18.83v25.754h-7.381V526.422q0-6.554-1.384-9.323-1.938-3.968-7.75-3.969-6.83,0-9.226,5.63-1.57,3.693-1.569,11.539v20.584h-7.381V507.5Z" transform="translate(4042.977 810.345)" fill="#fff"/>
    <path id="Path_66367" data-name="Path 66367" d="M455.35,507.5v41.317a61.174,61.174,0,0,1-.553,9.8,20.02,20.02,0,0,1-3.875,8.875q-6,7.671-16.792,7.671-9.227,0-15.177-5.424t-6.135-14.606H420.2a12.823,12.823,0,0,0,3.921,9.622,13.953,13.953,0,0,0,9.918,3.578q13.931,0,13.931-18.257v-5.189h-.184a17.961,17.961,0,0,1-15.039,7.2,18.919,18.919,0,0,1-15.13-6.831q-5.537-6.369-5.536-15.876a23.929,23.929,0,0,1,5.628-16.154,19.184,19.184,0,0,1,15.315-6.923,17.535,17.535,0,0,1,14.762,7.385h.184V507.5Zm-21.589,5.631a12.8,12.8,0,0,0-10.195,4.569,16.364,16.364,0,0,0-3.921,11.031,17.978,17.978,0,0,0,3.691,11.445,12.681,12.681,0,0,0,10.518,5.077,13.153,13.153,0,0,0,10.794-4.892,17.661,17.661,0,0,0,3.69-11.538,16.3,16.3,0,0,0-3.967-11.216A13.476,13.476,0,0,0,433.761,513.13Z" transform="translate(4042.977 810.345)" fill="#fff"/>
    <path id="Path_66368" data-name="Path 66368" d="M470.019,474.731H477.4v38.03a14.727,14.727,0,0,1,12.446-6.462q14.862,0,14.863,18.83v25.754h-7.381V526.422q0-6.554-1.384-9.323-1.938-3.968-7.75-3.969-6.828,0-9.226,5.63Q477.4,522.453,477.4,530.3v20.584h-7.381Z" transform="translate(4042.977 810.345)" fill="#fff"/>
    <path id="Path_66369" data-name="Path 66369" d="M524.176,485.9a5.362,5.362,0,1,1-3.69,1.57A5.051,5.051,0,0,1,524.176,485.9Zm3.69,21.6v43.384h-7.38V507.5Z" transform="translate(4042.977 810.345)" fill="#fff"/>
    <path id="Path_66370" data-name="Path 66370" d="M581.377,530.76H547.333a14.76,14.76,0,0,0,4.013,10.385,13.458,13.458,0,0,0,10.2,4.107q8.211,0,13.194-8.954l6.273,3.6q-6.552,12.186-20.02,12.185-9.6,0-15.5-6.461-5.723-6.183-5.72-15.877,0-10.06,5.443-16.523Q550.93,506.3,560.8,506.3q10.055,0,15.777,7.385Q581.929,520.515,581.377,530.76ZM547.7,524.483h25.925a13.378,13.378,0,0,0-4.336-8.076,12.082,12.082,0,0,0-8.4-3.277,13.035,13.035,0,0,0-8.718,3.277A12.539,12.539,0,0,0,547.7,524.483Zm2-25.54,11.1-9.353,11.035,9.293-3.869,3.257-7.093-5.973-7.165,6.154ZM560.8,556.7a4.533,4.533,0,0,1,3.275,1.292,4.312,4.312,0,0,1,1.338,3.231,4.617,4.617,0,0,1-1.338,3.323,4.565,4.565,0,0,1-6.55,0,4.608,4.608,0,0,1-1.338-3.323,4.3,4.3,0,0,1,1.338-3.231A4.531,4.531,0,0,1,560.8,556.7Z" transform="translate(4042.977 810.345)" fill="#fff"/>
    <path id="Path_66371" data-name="Path 66371" d="M599.276,507.5v4.708A11.833,11.833,0,0,1,609.74,506.3q8.334,0,12.039,7.2,3.888-7.2,13.058-7.2,13.892,0,13.891,18.184v26.4h-7.381v-25.2q0-5.723-1.107-8.4-1.754-4.155-6.828-4.154-9.41,0-9.41,14.769v22.984h-7.381V526.237q0-13.105-7.75-13.107-9.6,0-9.595,15.323v22.43H591.9V507.5Z" transform="translate(4042.977 810.345)" fill="#fff"/>
    <path id="Path_66372" data-name="Path 66372" d="M699.286,507.5v4.708A11.834,11.834,0,0,1,709.75,506.3q8.334,0,12.039,7.2,3.888-7.2,13.058-7.2,13.891,0,13.891,18.184v26.4h-7.381v-25.2q0-5.723-1.107-8.4-1.754-4.155-6.827-4.154-9.411,0-9.411,14.769v22.984h-7.381V526.237q0-13.105-7.75-13.107-9.6,0-9.595,15.323v22.43h-7.381V507.5Z" transform="translate(4042.977 810.345)" fill="#fff"/>
    <path id="Path_66373" data-name="Path 66373" d="M789.517,507.5l5.443.369v.092q1.938-1.383,1.937-2.676t-1.66-1.754a12.449,12.449,0,0,0-3.322.092l3.506-2.953a8.3,8.3,0,0,1,4.337.369,3.329,3.329,0,0,1,2.214,3.323q0,3.969-6.551,6.184a22.7,22.7,0,1,1-29.662,2.354,21.929,21.929,0,0,1,16.284-6.6A24.66,24.66,0,0,1,789.517,507.5Zm-7.474,5.631a14.556,14.556,0,0,0-11.117,4.569,17.537,17.537,0,0,0,0,22.984,15.81,15.81,0,0,0,22.235,0,17.537,17.537,0,0,0,0-22.984A14.56,14.56,0,0,0,782.043,513.13ZM792.1,484.423l4.521,4.707-14.578,9.508-1.291-3.415Z" transform="translate(4042.977 810.345)" fill="#fff"/>
    <path id="Path_66374" data-name="Path 66374" d="M820.424,485.9a5.362,5.362,0,1,1-3.69,1.57A5.051,5.051,0,0,1,820.424,485.9Zm3.69,21.6v43.384h-7.38V507.5Z" transform="translate(4042.977 810.345)" fill="#fff"/>
    <path id="Path_66375" data-name="Path 66375" d="M870.088,507.5l12.966,29.241L895.965,507.5h8.324l-21.221,46.245L861.758,507.5Z" transform="translate(4042.977 810.345)" fill="#fff"/>
    <path id="Path_66376" data-name="Path 66376" d="M938.148,507.5l5.444.369v.092q1.937-1.383,1.937-2.676t-1.66-1.754a12.448,12.448,0,0,0-3.322.092l3.506-2.953a8.292,8.292,0,0,1,4.336.369,3.329,3.329,0,0,1,2.215,3.323q0,3.969-6.551,6.184a22.7,22.7,0,1,1-29.662,2.354,21.927,21.927,0,0,1,16.284-6.6A24.659,24.659,0,0,1,938.148,507.5Zm-7.473,5.631a14.56,14.56,0,0,0-11.118,4.569,17.537,17.537,0,0,0,0,22.984,15.81,15.81,0,0,0,22.235,0,17.534,17.534,0,0,0,0-22.984A14.558,14.558,0,0,0,930.675,513.13Zm10.057-28.707,4.52,4.707-14.577,9.508-1.292-3.415Z" transform="translate(4042.977 810.345)" fill="#fff"/>
    <path id="Path_66377" data-name="Path 66377" d="M969.055,485.9a5.36,5.36,0,1,1-3.69,1.57A5.055,5.055,0,0,1,969.055,485.9Zm3.691,21.6v43.384h-7.381V507.5Z" transform="translate(4042.977 810.345)" fill="#fff"/>
    <path id="Path_66378" data-name="Path 66378" d="M1017.307,550.883v-69.6h11.441q23.25,0,23.249,18.831,0,9.048-6.827,13.569a16.107,16.107,0,0,1,9.641,6.461,19.078,19.078,0,0,1,3.553,11.354q0,10.155-7.75,15.138-6.552,4.246-17.161,4.246Zm7.75-62.4V511.93h2.953q7.933,0,11.44-1.846,4.8-2.583,4.8-9.969,0-7.2-4.521-9.785-3.231-1.845-11.625-1.846Zm0,30.092v25.107h7.75q17.8,0,17.807-12.738,0-12.369-18.822-12.369Z" transform="translate(4042.977 810.345)" fill="#fff"/>
    <path id="Path_66379" data-name="Path 66379" d="M1109.752,507.5v43.384h-7.381v-6a18.152,18.152,0,0,1-15.024,7.2,19.126,19.126,0,0,1-15.208-6.923,23.244,23.244,0,0,1-5.657-15.877q0-9.691,5.564-16.153a19.27,19.27,0,0,1,15.4-6.831,18.06,18.06,0,0,1,14.93,7.385V507.5Zm-21.589,5.631a12.8,12.8,0,0,0-10.195,4.569,16.364,16.364,0,0,0-3.921,11.031,17.978,17.978,0,0,0,3.691,11.445,12.679,12.679,0,0,0,10.517,5.077,13.153,13.153,0,0,0,10.8-4.892,17.661,17.661,0,0,0,3.69-11.538,16.3,16.3,0,0,0-3.967-11.216A13.476,13.476,0,0,0,1088.163,513.13Z" transform="translate(4042.977 810.345)" fill="#fff"/>
    <path id="Path_66380" data-name="Path 66380" d="M1155.975,550.883v-6a18,18,0,0,1-15.024,7.2,19.129,19.129,0,0,1-15.209-6.923,23.25,23.25,0,0,1-5.657-15.877q0-9.691,5.565-16.153a19.269,19.269,0,0,1,15.394-6.831,17.9,17.9,0,0,1,14.931,7.385V474.731h7.381v76.152Zm-14.208-37.753a12.8,12.8,0,0,0-10.195,4.569,16.365,16.365,0,0,0-3.922,11.031,17.978,17.978,0,0,0,3.691,11.445,12.681,12.681,0,0,0,10.518,5.077,13.152,13.152,0,0,0,10.794-4.892,17.656,17.656,0,0,0,3.691-11.538,16.3,16.3,0,0,0-3.968-11.216A13.476,13.476,0,0,0,1141.767,513.13Z" transform="translate(4042.977 810.345)" fill="#fff"/>
    <path id="Path_66381" data-name="Path 66381" d="M1196.2,552.083a22.383,22.383,0,0,1-22.788-22.8,22.372,22.372,0,0,1,6.55-16.338,23.16,23.16,0,0,1,32.476,0,22.377,22.377,0,0,1,6.551,16.338,22.385,22.385,0,0,1-22.789,22.8Zm0-38.953a14.487,14.487,0,0,0-11.117,4.615,17.414,17.414,0,0,0,0,22.892,15.7,15.7,0,0,0,22.235,0,17.414,17.414,0,0,0,0-22.892A14.49,14.49,0,0,0,1196.2,513.13Z" transform="translate(4042.977 810.345)" fill="#fff"/>
  </g>
</svg>
